<?xml version="1.0" encoding="UTF-8"?>
<svg width="100px" height="80px" viewBox="0 0 100 80" version="1.1" xmlns="http://www.w3.org/2000/svg" xmlns:xlink="http://www.w3.org/1999/xlink">
    <!-- Generator: Sketch 62 (91390) - https://sketch.com -->
    <title>Aardbei</title>
    <desc>Created with Sketch.</desc>
    <g id="Page-2" stroke="none" stroke-width="1" fill="none" fill-rule="evenodd">
        <g id="Artboard" transform="translate(-805.000000, -150.000000)" fill-rule="nonzero">
            <g id="Aardbei" transform="translate(805.000000, 150.000000)">
                <path d="M98.3338966,53.0818109 C97.4601356,52.6598048 96.021263,52.2199044 94.5615156,51.8321955 C95.4904458,50.8673971 96.2240471,49.9965434 96.5043664,49.3985771 C97.6107327,47.0589035 95.9511832,44.3374858 93.3776141,44.9965908 C92.9138946,45.117377 92.2026591,45.3962292 91.3602104,45.776482 C91.4660756,45.5826276 91.5659766,45.3962292 91.6494759,45.2232514 C92.6932177,43.0088375 91.2662736,40.4603976 88.9327652,40.7452145 C88.9327652,40.6110076 88.9432026,40.487239 88.9432026,40.3500498 C88.9432026,20.8020693 74.9510983,0 49.3033803,0 C24.9021882,0 9.66504902,20.8020693 9.66504902,40.3500498 C9.66504902,41.440108 9.72916459,42.4705188 9.83502983,43.4606674 C6.45927065,43.6679425 3.84693404,45.6139426 4.48063442,47.6926583 C6.35042329,53.7990722 0,52.1915718 0,56.3728623 C0,59.3015551 3.0566724,60.5034524 5.47964442,61.4876363 C5.47964442,61.4876363 4.72516821,66.7157406 7.68343067,66.6918816 C10.6402021,66.671005 12.0239055,67.3226541 12.6919002,69.8994265 C13.3584039,72.476199 15.7977776,72.174979 17.5363532,72.1883997 C19.2719467,72.2033116 20.6645965,72.2152411 20.6645965,72.2152411 C20.6645965,72.2152411 20.2739388,76.0669791 23.4081463,75.7687416 C26.5393717,75.4719952 24.8112335,74.4952672 28.2824205,75.1648105 C31.7506254,75.8343538 30.0910759,76.2548688 32.7734924,77.7714067 C34.5016306,78.7496259 36.9231115,79.7338098 38.6885262,77.4985194 C41.2948986,74.1895737 42.1522579,78.4901592 44.2442147,77.8623692 C45.8620145,77.3792244 46.2362705,77.4567661 47.2844854,77.2301056 C47.9017841,77.6252703 48.6428408,78.154642 49.4256472,78.8271677 C51.5012023,80.6136106 55.0603618,80.3601087 55.3570827,78.0606972 C55.366029,77.9950849 55.3719933,77.9294726 55.3809396,77.8623692 C55.5121529,77.9682435 55.640384,78.0681531 55.7745794,78.1844657 C57.8501345,79.9709087 61.409294,79.7174068 61.7060149,77.4194864 C61.7119792,77.3702772 61.7179434,77.3255416 61.7239076,77.2763324 C62.0921994,77.5462374 62.4724196,77.8414926 62.8720236,78.1844657 C64.9475787,79.9709087 68.5067382,79.7174068 68.8034591,77.4194864 C68.8466998,77.075022 68.8839763,76.7454696 68.9152886,76.4188994 C68.9898416,76.4054787 69.0479929,76.399514 69.1270191,76.3816197 C71.2189758,77.6342175 74.1384707,77.2435263 74.4068615,75.1677929 C74.4501022,74.8278021 74.4873787,74.4952672 74.5171999,74.1686971 C74.7363857,73.9703691 74.992848,73.7332703 75.4491122,73.4007354 C77.2025984,72.1302434 80.4590728,75.4078741 81.4252795,71.7947262 C82.2438713,68.7377912 87.4163574,72.421025 88.8388284,69.5385591 C90.2598083,66.6590755 88.8761049,66.0044441 90.2836653,64.407382 C91.6912256,62.8133023 93.7548523,64.7578111 94.1425278,61.2266785 C94.2811963,59.9457482 94.3676778,59.2598018 94.3244371,58.7438508 C95.2697689,58.5499964 96.1629137,58.3278095 96.8577475,58.0832547 C99.5774404,57.1259121 100.680825,54.2061665 98.3338966,53.0818109" id="Path" fill="#F0AFAF"></path>
                <path d="M60.7038525,44.8817832 C59.2133691,45.8404863 71.4968541,45.2018448 75.9638462,40.7313548 C75.9638462,40.7313548 75.2193475,40.4112932 71.8698465,41.0499346 C68.5188595,41.6885761 69.5174685,42.2042309 66.6583558,42.0086377 C63.7992431,41.8130445 62.1898778,43.9230802 60.7038525,44.8817832 Z M57.2272869,33.7116211 C58.0230462,33.2888023 58.6866739,33.0592721 59.2508316,32.9112855 C61.4198696,32.8297419 63.7032238,32.471856 64.7305847,31.4253795 C66.961977,29.1481982 69.1948539,31.7500439 70.6809641,29.7990372 C72.168559,27.8465204 73.6561538,28.1711848 73.6561538,25.8940036 C73.6561538,23.6168224 68.4495718,25.8940036 68.4495718,25.8940036 C68.4495718,25.8940036 66.5908206,24.2661513 63.6156309,26.218668 C60.6419258,28.1711848 62.1265514,30.4528962 59.5254873,30.7730305 C57.2911258,31.0539029 55.0671566,32.2861177 54.4807295,32.6319231 C54.2892128,32.6032318 54.0991807,32.5745405 53.8571868,32.5337687 C51.3214462,32.1154801 50.1946154,34.8819231 50.1946154,34.8819231 L53.8230404,34.0211848 C53.8230404,34.0211848 54.8607937,34.9679969 57.2272869,33.7116211 Z M31.1011448,51.3359837 C28.9637387,50.3339977 27.3488096,50.3522433 25.5334987,48.6097912 C23.7211564,46.867339 19.81,46.805 19.81,46.805 C19.81,46.805 22.7964314,48.2540025 24.9575865,50.6837045 C27.1157729,53.1103656 27.9247218,52.7059221 31.8180665,54.1260358 C38.4544157,56.546615 42.1176923,55.3606529 42.1176923,55.3606529 C42.1176923,55.3606529 41.1039087,52.7211268 36.78902,51.5534101 C31.3460559,50.0770393 33.234098,52.3364493 31.1011448,51.3359837 Z M63.3682004,21.0554993 C65.7303418,19.8380784 66.9899529,20.2224502 67.6375412,19.6919294 C68.2880934,19.1657931 69.81,17.5742308 69.81,17.5742308 C69.81,17.5742308 66.1956569,18.0521379 64.0513542,19.0897956 C61.9085333,20.1303763 62.5383389,20.32037 60.0057796,19.9184603 C57.4732202,19.5121662 56.3484615,22.1896154 56.3484615,22.1896154 L59.971696,21.3565662 C59.971696,21.3565662 61.006059,22.2714588 63.3682004,21.0554993 Z M52.2185342,41.0446518 C55.6974447,40.5963584 59.4253846,40.1345711 59.4253846,40.1345711 C59.4253846,40.1345711 58.6557938,37.1599417 54.9263537,37.6232282 C50.2247989,38.2064595 52.5635749,39.2934587 50.547337,39.2109966 C48.5310991,39.1270353 47.3189561,39.6397991 45.2427111,38.9126341 C43.1709666,38.1869685 40.1946154,39.3399372 40.1946154,39.3399372 C40.1946154,39.3399372 43.0359507,39.4913675 45.649259,40.6158494 C48.2610672,41.7373327 48.7411239,41.4914459 52.2185342,41.0446518 Z M87.4926741,48.0303417 C87.7925753,47.2553998 88.0657525,46.211692 88.3730769,44.7155614 C88.4532485,44.4064806 88.5334201,44.1033723 88.6195303,43.7853325 C88.6195303,43.7853325 88.5883525,43.8360995 88.5304508,43.9167292 C88.6343769,43.3806904 88.7383031,42.8118025 88.8526218,42.1727367 C89.7300553,37.2334155 87.384294,29.1375873 85.0103243,23.6129535 C82.4626494,17.688157 75.8381009,14.4973077 75.8381009,14.4973077 C75.8381009,14.4988008 78.8103882,18.3600719 79.555687,21.5763047 C80.2995012,24.7955237 79.1830376,23.5099265 79.9268518,27.0471853 C80.670666,30.5859372 78.0680587,31.2309755 74.3489879,32.5180659 C70.629917,33.8036631 65.7943826,37.9889465 68.7696393,37.0243753 C71.744896,36.058311 72.8598749,37.3468945 77.3242445,35.4162589 C81.7886142,33.4826371 82.159779,32.840585 82.9035931,35.0922466 C83.6474073,37.3468945 85.8773651,39.919582 80.670666,45.0679435 C77.9329547,47.775014 73.2354936,45.808543 70.629917,48.9307077 C65.7943826,54.7211212 54.2660054,55.6856924 54.2660054,55.6856924 C54.2660054,55.6856924 61.3314976,58.5823923 73.6051737,52.1469405 C77.0822451,50.3238113 78.528303,51.6766 79.9030973,52.4799116 C77.3108826,54.4045746 74.1648902,56.2710049 70.5022364,57.6282731 C60.3798312,61.3805446 46.3542575,62.7855934 33.6277604,59.8202089 C33.6529996,59.7978117 33.6812081,59.7873597 33.703478,59.7664557 C33.703478,59.7664557 33.1927553,59.8784415 32.0035434,58.4196395 C30.8113622,56.9608376 30.2293759,56.4636205 28.9020907,56.75777 C28.0662277,56.9414267 26.6944028,57.1803298 25.7857914,57.3341237 C25.4769824,57.2101927 25.1741119,57.0743165 24.8682722,56.9414267 C24.7287142,56.6622087 24.581733,56.333717 24.4317824,55.8917463 C23.7057842,53.7908923 23.2544478,53.0144573 21.5752985,52.9054577 C20.2465287,52.8173622 17.9007674,52.5500894 16.9713709,52.4395967 C15.5327363,51.38693 14.1742733,50.2222775 12.8989512,48.954598 C11.1366609,46.4281979 10.9392013,44.2631387 10.9392013,44.2631387 C10.9392013,44.2631387 10.1939025,45.5502291 10.1939025,48.1259029 C10.1939025,50.7000837 11.6830154,50.8613432 8.89334116,52.9517452 C8.89334116,52.9517452 5.20990214,53.6833859 6.10366687,56.0082115 C6.66189866,57.4565615 8.33510937,58.4226258 9.45008829,58.4226258 C10.5665519,58.4226258 13.4215512,59.1363488 15.4020863,59.387197 C17.8146572,59.6947847 19.1597583,59.4006353 19.7461986,58.7526107 C20.4306264,59.9829616 21.6940712,61.3506817 24.0175626,62.3286912 C26.7137033,63.4664672 25.0182227,67.8070376 25.0182227,67.8070376 C25.0167381,67.8070376 27.0150891,65.213446 30.0141003,65.213446 C30.3095475,65.213446 30.6153872,65.223898 30.9182577,65.2298706 C31.0489077,65.3776918 31.1810423,65.5359651 31.3220849,65.7241013 C32.6181922,67.4516692 33.3575524,68.0787898 35.7641847,68.0787898 C36.6238023,68.0787898 37.7877749,68.0996938 38.932447,68.1265704 C39.0898209,68.5730206 39.5990589,69.0582925 40.752639,69.5241535 C44.4717098,71.0262566 44.5162496,69.1613194 47.9458119,70.8097507 C49.4898573,71.5533365 51.6277663,70.3394102 52.8793338,68.9537724 C62.3692743,68.8447728 71.7434113,66.4691803 78.4392235,61.8001182 C84.4743624,57.5924376 85.9382362,53.7834266 87.4926741,48.0303417 Z M83.3997154,60.5199257 C83.3997154,60.5199257 85.37382,62.4272137 81.919137,65.3950896 C79.6450749,67.3510555 80.2745424,69.4973077 80.2745424,69.4973077 C80.2745424,69.4973077 81.9915405,66.5559834 83.7262701,66.9527819 C87.0996839,67.7257277 84.797547,64.8965101 87.0996839,63.7002142 C89.4018209,62.5039183 89.1565354,61.2323929 89.8968246,61.0199803 C90.6371139,60.8075677 92.1176923,59.1126923 92.1176923,59.1126923 C92.1176923,59.1126923 85.1255793,61.9655114 83.3997154,60.5199257 Z M16.7310789,34.5801929 C18.4933167,36.5453137 19.1721379,36.2344888 22.3969131,37.4144451 C27.8919181,39.4311246 30.9638462,38.5251656 30.9638462,38.5251656 C30.9638462,38.5251656 30.1576523,36.4024226 26.5807293,35.416916 C22.0672428,34.1691968 23.6062038,36.0017383 21.840969,35.1753269 C20.0787313,34.3474424 18.7285814,34.3474424 17.2435664,32.9288432 C15.7585514,31.5146633 12.5023077,31.4203846 12.5023077,31.4203846 C12.5023077,31.4203846 14.9673427,32.6121258 16.7310789,34.5801929 Z M27.2997692,30.0705243 C28.6586716,31.6215905 29.1836013,31.3759802 31.6677754,32.3078107 C35.9041796,33.8960905 38.2715385,33.184565 38.2715385,33.184565 C38.2715385,33.184565 37.6504949,31.5069723 34.8942445,30.7284622 C31.414922,29.7460211 32.6008194,31.1899118 31.2389597,30.5364396 C29.8800572,29.887433 28.83907,29.8844559 27.6960541,28.766557 C26.5486022,27.6486581 24.0407692,27.5742308 24.0407692,27.5742308 C24.0407692,27.5742308 25.9393881,28.5164811 27.2997692,30.0705243 Z M32.7158206,23.6555512 C34.7166969,24.0638224 35.160687,24.8819231 35.8281326,24.8819231 C36.4941177,24.8819231 38.2715385,24.6762292 38.2715385,24.6762292 C38.2715385,24.6762292 36.0501276,23.2488383 34.2697859,22.8421254 C32.4923651,22.4307377 32.7158206,22.8390088 31.6058455,21.4131763 C30.4929493,19.9842271 28.2715385,21.0033468 28.2715385,21.0033468 L30.7178653,22.2281604 C30.7178653,22.2281604 30.7178653,23.2457217 32.7158206,23.6555512" id="Shape" fill="#ED9C98"></path>
            </g>
        </g>
    </g>
</svg>