<?xml version="1.0" encoding="UTF-8"?>
<svg width="100px" height="80px" viewBox="0 0 100 80" version="1.1" xmlns="http://www.w3.org/2000/svg" xmlns:xlink="http://www.w3.org/1999/xlink">
    <!-- Generator: Sketch 62 (91390) - https://sketch.com -->
    <title>chocolade</title>
    <desc>Created with Sketch.</desc>
    <g id="Page-2" stroke="none" stroke-width="1" fill="none" fill-rule="evenodd">
        <g id="Artboard" transform="translate(-680.000000, -150.000000)" fill-rule="nonzero">
            <g id="chocolade" transform="translate(680.000000, 150.000000)">
                <path d="M98.3337979,53.0820416 C97.4600245,52.6630042 96.0226226,52.2230896 94.5613634,51.8323857 C95.4903067,50.8690472 96.2239185,49.9951828 96.5057328,49.3971971 C97.6106237,47.0589388 95.9525418,44.3359416 93.3774452,44.9935768 C92.912228,45.1158581 92.2039646,45.399193 91.3600129,45.7749845 C91.4658796,45.582615 91.565782,45.399193 91.6477915,45.2247184 C92.6945302,43.0072502 91.2660748,40.4587277 88.9325333,40.745045 C88.9355155,40.6108338 88.9444619,40.4855699 88.9444619,40.3483762 C88.9444619,20.8027441 74.9506685,0 49.3040784,0 C24.9010497,0 9.66369479,20.8027441 9.66369479,40.3483762 C9.66369479,41.4414523 9.72781126,42.4718965 9.83516908,43.4590948 C6.45637995,43.6693591 3.84549743,45.6109485 4.48069786,47.6942054 C6.35051321,53.7993262 0,52.1917736 0,56.3702173 C0,59.3034788 3.05671568,60.5039238 5.47972201,61.4881397 C5.47972201,61.4881397 4.72374403,66.7164136 7.68353946,66.6925538 C10.6388616,66.6731678 12.0240757,67.3248379 12.6905889,69.9002028 C13.3585931,72.4770588 15.7950191,72.1743379 17.5351104,72.1892502 C19.2737107,72.2026714 20.6648891,72.2146012 20.6648891,72.2146012 C20.6648891,72.2146012 20.2727348,76.0679554 23.4084778,75.768217 C26.5382564,75.4744434 24.8115848,74.499175 28.2813299,75.1657576 C31.7495839,75.8353226 30.0885198,76.2543599 32.7739564,77.7724383 C34.5021191,78.7506892 36.9236343,79.7349051 38.6875829,77.4980509 C41.2954833,74.1889979 42.1528548,78.4912142 44.2448411,77.864895 C45.8626638,77.378752 46.2369251,77.4577875 47.2836639,77.2311196 C47.9039535,77.6292797 48.6420385,78.1571773 49.4248559,78.8267423 C51.5004404,80.6147344 55.0596503,80.3582418 55.3563754,78.0632294 C55.3653219,77.9931413 55.3712862,77.9290181 55.3802327,77.8619125 C55.5114478,77.9707727 55.6396808,78.0691943 55.7753691,78.1855107 C57.8494625,79.9720116 61.4101635,79.7185015 61.7068886,77.4190154 C61.7128529,77.3698046 61.7173262,77.3265587 61.7232905,77.2773479 C62.0915875,77.5487529 62.4718131,77.8425264 62.8699317,78.1855107 C64.9470072,79.9720116 68.5077082,79.7185015 68.8044333,77.4190154 C68.8461836,77.0790135 68.8849517,76.7464679 68.9147733,76.4213784 C68.9893273,76.406466 69.0474795,76.4005011 69.1265068,76.3826063 C71.2199842,77.6352446 74.1380294,77.2445407 74.407915,75.16874 C74.4496653,74.827247 74.4869423,74.4961925 74.518255,74.1696118 C74.7359528,73.9712774 74.9939098,73.7326796 75.4501805,73.4031164 C77.2007094,72.131092 80.458721,75.4103203 81.4279235,71.7955639 C82.2435447,68.740021 87.4175952,72.4218831 88.8385952,69.5408148 C90.2595952,66.6582554 88.8758722,66.005094 90.2849436,64.4094713 C91.6910328,62.8138486 93.7561797,64.7584206 94.1423697,61.2256821 C94.2825313,59.9476928 94.369014,59.2602329 94.3242815,58.7442652 C95.2696268,58.5489133 96.1642753,58.3282103 96.8591189,58.0836476 C99.5773593,57.1277652 100.680759,54.2064336 98.3337979,53.0820416" id="Path" fill="#806A58"></path>
                <path d="M61.0711189,44.8628217 C59.5752296,45.828912 71.9170627,45.1838564 76.4047306,40.6789189 C76.4047306,40.6789189 75.656786,40.3578843 72.2902886,41.0029399 C68.9252842,41.6435161 69.9285153,42.1631443 67.0531832,41.9675371 C64.1808369,41.7689436 62.5670082,43.8982246 61.0711189,44.8628217 Z M57.6389338,33.6086906 C58.4391301,33.1861194 59.1064579,32.9621418 59.6737612,32.8187961 C61.8563861,32.7336845 64.1524717,32.3842794 65.184068,31.3465162 C67.4293949,29.0947941 69.6732288,31.6675509 71.1691181,29.7398498 C72.6635145,27.8091623 74.1594038,28.1287037 74.1594038,25.8784748 C74.1594038,23.6237663 68.9252842,25.8784748 68.9252842,25.8784748 C68.9252842,25.8784748 67.0531832,24.2673288 64.0628975,26.1980163 C61.0711189,28.1287037 62.5670082,30.3834122 59.9484555,30.7044469 C57.7031286,30.9791928 55.4667592,32.1976313 54.8770623,32.5395706 C54.6844778,32.5126933 54.4933861,32.4843227 54.2500429,32.4425136 C51.7001637,32.0289015 50.56705,34.7644154 50.56705,34.7644154 L54.2157061,33.9133003 C54.2157061,33.9133003 55.2592456,34.8510201 57.6389338,33.6086906 Z M31.0264362,51.4626969 C28.8781481,50.4771952 27.2523762,50.4980998 25.4280481,48.7854172 C23.605213,47.0772142 19.6714123,47.0159937 19.6714123,47.0159937 C19.6714123,47.0159937 22.6751341,48.4389984 24.8488016,50.8221208 C27.0194832,53.20375 27.8331156,52.8080561 31.7504944,54.2011972 C38.4222801,56.5813332 42.1082588,55.4181425 42.1082588,55.4181425 C42.1082588,55.4181425 41.0886057,52.8229879 36.7487353,51.6762223 C31.2727653,50.2263402 33.1747243,52.4467055 31.0264362,51.4626969 Z M63.4970871,20.9001979 C65.8767752,19.6578685 67.1472361,20.0475896 67.798142,19.50855 C68.4535267,18.9724968 69.9867385,17.3449258 69.9867385,17.3449258 C69.9867385,17.3449258 66.3470398,17.8317039 64.1853156,18.893358 C62.0265771,19.9550122 62.662554,20.1506193 60.1096891,19.7385004 C57.558317,19.3248883 56.4252033,22.0604022 56.4252033,22.0604022 L60.0738594,21.2092871 C60.0738594,21.2092871 61.1173989,22.1425274 63.4970871,20.9001979 Z M52.4107858,41.0163786 C55.8713361,40.5729028 59.5826941,40.1100157 59.5826941,40.1100157 C59.5826941,40.1100157 58.8168346,37.1490309 55.1054766,37.6104249 C50.426717,38.19426 52.7541536,39.2753256 50.7461984,39.1917072 C48.7427219,39.1095821 47.534963,39.6202512 45.4702775,38.8960567 C43.4055919,38.1733554 40.4451643,39.3231075 40.4451643,39.3231075 C40.4451643,39.3231075 43.2712306,39.4709327 45.8733614,40.590821 C48.4725064,41.707723 48.9517284,41.4628408 52.4107858,41.0163786 Z M87.75229,48.1478275 C88.0538566,47.3713716 88.3285508,46.3276356 88.6360889,44.8344512 C88.7181986,44.525362 88.7973225,44.2222456 88.8839109,43.9041973 C88.8839109,43.9041973 88.8525599,43.950486 88.7943367,44.0326112 C88.8988399,43.496558 89.0033432,42.9276547 89.1212825,42.2885717 C90.0020956,37.3506108 87.6418152,29.2545648 85.2561554,23.7282892 C82.694333,17.8018402 76.0315048,14.6153846 76.0315048,14.6153846 C76.0315048,14.6153846 79.0217905,18.4737732 79.7697351,21.6930788 C80.5176797,24.9123845 79.3965092,23.6237663 80.142961,27.1641066 C80.8923985,30.7044469 78.2738458,31.3465162 74.5356155,32.632148 C70.7943993,33.9207662 65.9335056,38.1061621 68.9252842,37.141565 C71.9170627,36.1724883 73.0382333,37.4625997 77.5259012,35.530419 C82.0150619,33.5997315 82.3882878,32.956169 83.1362325,35.2108775 C83.8841771,37.4625997 86.1280111,40.0368496 80.8923985,45.1838564 C78.1394845,47.8909997 73.4144449,45.9244758 70.7943993,49.0452313 C65.9335056,54.8372937 54.34111,55.8033841 54.34111,55.8033841 C54.34111,55.8033841 61.4458377,58.6986687 73.7861779,52.2630438 C77.2855437,50.4428519 78.7366459,51.7926907 80.1190745,52.5975171 C77.5139579,54.5192454 74.3504954,56.3887124 70.6675025,57.7415375 C60.4903795,61.4954031 46.3854273,62.9034761 33.5882586,59.9350254 C33.612145,59.915614 33.6375244,59.9036685 33.6629038,59.8827639 C33.6629038,59.8827639 33.1478521,59.9932596 31.9535293,58.5359116 C30.7562207,57.0800568 30.1710025,56.5813332 28.8363468,56.8725041 C27.9958421,57.057659 26.6134135,57.2995549 25.7012495,57.4503665 C25.3922184,57.324939 25.0861732,57.1905524 24.780128,57.057659 C24.6383022,56.7799267 24.4919976,56.4469466 24.3382286,56.0064571 C23.6111846,53.9070398 23.155849,53.1320771 21.4673752,53.0200883 C20.1327195,52.9334836 17.7739319,52.6676968 16.8393744,52.5572011 C15.3942438,51.5045061 14.0252513,50.338329 12.7428472,49.0721086 C10.9707707,46.5426542 10.7722146,44.37903 10.7722146,44.37903 C10.7722146,44.37903 10.0242699,45.6661549 10.0242699,48.2433913 C10.0242699,50.8161481 11.5201592,50.9759188 8.71499357,53.0678702 C8.71499357,53.0678702 5.01110002,53.7995306 5.90982792,56.1244187 C6.47265254,57.575794 8.15366186,58.5388979 9.27632529,58.5388979 C10.3989887,58.5388979 13.2683492,59.2526401 15.2583896,59.5034951 C17.6858506,59.8095979 19.0399141,59.5184269 19.6281181,58.8673985 C20.3193324,60.1022621 21.5868075,61.4670326 23.9246943,62.4465616 C26.6343141,63.5813818 24.9294184,67.9235621 24.9294184,67.9235621 C24.9294184,67.9235621 26.9373736,65.3299008 29.9530386,65.3299008 C30.2486335,65.3299008 30.5576645,65.3388599 30.8622168,65.3448326 C30.9935923,65.4971374 31.1279536,65.6509354 31.2682866,65.8375835 C32.5715913,67.5681842 33.3165502,68.1968149 35.7365467,68.1968149 C36.6009378,68.1968149 37.7728671,68.2147331 38.9209099,68.2416104 C39.0791576,68.6895657 39.5912235,69.1748507 40.7512095,69.6407242 C44.4909328,71.1428678 44.5357199,69.2793736 47.982834,70.9278492 C49.5369466,71.6714551 51.6867276,70.4574961 52.9452452,69.0688346 C62.4893772,68.9613253 71.9140769,66.5841757 78.6500575,61.9179743 C84.7157244,57.7101806 86.1892201,53.8980807 87.75229,48.1478275 Z M83.8841771,60.4143376 C83.8841771,60.4143376 85.8801891,62.3465183 82.3882878,65.347819 C80.0907093,67.3277815 80.7251933,69.5003649 80.7251933,69.5003649 C80.7251933,69.5003649 82.4614401,66.5229551 84.2156017,66.9261149 C87.6253933,67.7070504 85.2964638,64.8431226 87.6253933,63.6336432 C89.949844,62.4226707 89.7005291,61.1370389 90.4499667,60.9205271 C91.1964184,60.7084949 92.6923077,58.9898396 92.6923077,58.9898396 C92.6923077,58.9898396 85.6293813,61.8806447 83.8841771,60.4143376 Z M16.7348711,34.6912493 C18.4905256,36.6831574 19.1668109,36.3680955 22.3780463,37.5671226 C27.8525234,39.6083057 30.9144684,38.6899973 30.9144684,38.6899973 C30.9144684,38.6899973 30.1112864,36.5368253 26.5492186,35.5363917 C22.0525933,34.2776373 23.5843123,36.1321723 21.825672,35.2944959 C20.0685246,34.4553262 18.7249115,34.4553262 17.2454441,33.0173896 C15.7659767,31.5854257 12.5218975,31.4883687 12.5218975,31.4883687 C12.5218975,31.4883687 14.9777237,32.6993413 16.7348711,34.6912493 Z M27.4330175,29.9235114 C28.8035029,31.4779164 29.3349766,31.2330342 31.8445473,32.1677676 C36.1202229,33.7609954 38.5103614,33.0442669 38.5103614,33.0442669 C38.5103614,33.0442669 37.8833419,31.3644344 35.1005698,30.5820058 C31.5877679,29.596504 32.7865694,31.0463861 31.4116053,30.3923714 C30.0366412,29.7398498 28.98713,29.7368634 27.8331156,28.6139887 C26.6761154,27.4941004 24.1411653,27.417948 24.1411653,27.417948 C24.1411653,27.417948 26.0610392,28.3631337 27.4330175,29.9235114 Z M32.7507397,23.580464 C34.7945246,23.9701851 35.2483673,24.7526137 35.9306242,24.7526137 C36.6128811,24.7526137 38.4282517,24.5570066 38.4282517,24.5570066 C38.4282517,24.5570066 36.1575455,23.192236 34.340682,22.7980353 C32.5208326,22.406821 32.7507397,22.7980353 31.6146402,21.4302784 C30.4785406,20.0595351 28.2078344,21.0390641 28.2078344,21.0390641 L30.7069549,22.212707 C30.7069549,22.212707 30.7069549,23.1892496 32.7507397,23.580464" id="Shape" fill="#735B4E"></path>
                <path d="M62.4380743,65.5204868 C62.4380743,65.5204868 63.0647602,62.1949182 66.4455653,63.4788119 C69.8248711,64.7671895 69.2221733,64.3083357 70.7019314,63.8031482 C73.2056762,62.942237 72.5729934,60.3415676 76.710919,59.7227876 C79.5894759,59.2938266 80.9672851,60.5807096 82.0092628,55.5916093 C82.7423952,52.0747271 86.2251492,56.071388 87.7273961,48.5563502 C88.4905135,44.7345619 92.1336871,54.6903429 89.3555799,57.0399131 C86.5759734,59.3894834 82.970281,60.9020567 81.0917228,62.8346231 C79.2146638,64.7671895 67.9463129,71.5304246 63.4395723,70.889225 C58.9343309,70.2435416 47.8234011,72.4301964 50.9223475,71.1014636 C53.4260923,70.0298084 50.7589294,68.7399362 53.677966,67.23932 C54.9283392,66.5936366 56.219192,67.8027984 58.4320826,67.6652918 C61.9373254,67.4530532 62.4380743,65.5204868 62.4380743,65.5204868" id="Path" fill="#806A58"></path>
            </g>
        </g>
    </g>
</svg>