<?xml version="1.0" encoding="UTF-8"?>
<svg width="100px" height="159px" viewBox="0 0 100 159" version="1.1" xmlns="http://www.w3.org/2000/svg" xmlns:xlink="http://www.w3.org/1999/xlink">
    <!-- Generator: Sketch 62 (91390) - https://sketch.com -->
    <title>cone</title>
    <desc>Created with Sketch.</desc>
    <defs>
        <linearGradient x1="42.6996311%" y1="-2.02801394%" x2="100%" y2="-2.02801394%" id="linearGradient-1">
            <stop stop-color="#F4BD90" offset="0%"></stop>
            <stop stop-color="#EFA67F" offset="100%"></stop>
        </linearGradient>
        <linearGradient x1="42.6993794%" y1="-2.96979784%" x2="99.3997494%" y2="-2.96979784%" id="linearGradient-2">
            <stop stop-color="#FDE6CB" offset="0%"></stop>
            <stop stop-color="#FCE0AB" offset="100%"></stop>
        </linearGradient>
    </defs>
    <g id="Page-2" stroke="none" stroke-width="1" fill="none" fill-rule="evenodd">
        <g id="Artboard" transform="translate(-556.000000, -210.000000)">
            <g id="cone" transform="translate(556.000000, 210.000000)">
                <rect id="Rectangle" fill-opacity="0.01" fill="#FFFFFF" x="0" y="0" width="100" height="159"></rect>
                <path d="M48.998643,29.7437949 L17,26 C17,26 20.7630296,47.0494057 22.6465799,51.7251034 L41.9421144,152.745528 C41.9421144,152.745528 44.2938383,160.226374 48.998643,158.825148 C53.7048047,160.226374 56.0578856,152.745528 56.0578856,152.745528 L75.3534201,51.7251034 C77.2356134,47.0494057 81,26 81,26 L48.998643,29.7437949 Z" id="Path" fill="url(#linearGradient-1)" fill-rule="nonzero"></path>
                <polyline id="Path" fill="#EFA57E" fill-rule="nonzero" points="70.6641003 32.5774694 61 85 69.0915718 83.4389038 81 27 70.6641003 32.5774694"></polyline>
                <path d="M83.8175342,25.6287324 C81.9853367,28.6186788 70.432239,35.7775395 46.2493915,34.9309332 C26.398787,34.2361142 19.4774521,31.5484337 15.5917903,27.3206364 C13.2617425,24.7860517 13,15.0559679 13,15.0559679 C51.8647124,35.3535821 85.9721875,14 85.9721875,14 C85.9721875,14 86.4093245,21.3996266 83.8175342,25.6287324" id="Path" fill="#EFA57E" fill-rule="nonzero"></path>
                <path d="M87,11.0027228 C87,17.0758663 70.2111845,22 49.4986544,22 C28.7901611,22 12,17.0758663 12,11.0027228 C12,4.92413366 28.7901611,0 49.4986544,0 C70.2111845,0 87,4.92413366 87,11.0027228" id="Path" fill="#EFA57E" fill-rule="nonzero"></path>
                <path d="M84.7585915,23.180867 C82.8767067,26.313397 71.0069769,33.814275 46.1604473,32.9277099 C25.7664114,32.2009952 18.6558729,29.3827928 14.6620801,24.9553405 C12.2690329,22.2996751 12,12.1068631 12,12.1068631 C51.9271666,33.3709925 86.9713868,11 86.9713868,11 C86.9713868,11 87.4206716,18.7520714 84.7585915,23.180867" id="Path" fill="#F4BD90" fill-rule="nonzero"></path>
                <path d="M12.007794,12 C12.007794,12 11.5676018,23.8412903 17.3034802,27.6389032 C24.7292149,32.5556129 38.7056518,33 44,33 C44,33 34.9539833,30.5423226 36.0564708,25.406129 C36.9181236,21.3917419 43.1169397,21.6058065 43.1169397,21.6058065 C43.1169397,21.6058065 23.0393585,19.593871 12.007794,12" id="Path" fill="#F7CCA7" fill-rule="nonzero"></path>
                <path d="M75.3572849,56.8601366 C73.977238,59.1364404 65.2704462,64.5921108 47.0527408,63.9474466 C32.0949886,63.4186622 26.8804217,61.3714538 23.9505387,58.1507969 C22.1983138,56.2181363 22,48.8071622 22,48.8071622 C51.2811718,64.2697787 76.9791117,48 76.9791117,48 C76.9791117,48 77.3078236,53.6381476 75.3572849,56.8601366" id="Path" fill="#EFA57E" fill-rule="nonzero"></path>
                <path d="M75.3251902,55.4172429 C73.9200201,57.8360457 65.0581882,63.6292451 46.5064538,62.9441025 C31.2790808,62.3837835 25.9697658,60.20908 22.98898,56.7847541 C21.2013138,54.7334872 21,46.8571217 21,46.8571217 C50.8118842,63.2880607 76.9786472,46 76.9786472,46 C76.9786472,46.0013869 77.3141701,51.9901431 75.3251902,55.4172429" id="Path" fill="#F4BD90" fill-rule="nonzero"></path>
                <path d="M21.0058944,47 C21.0058944,47 20.6746915,56.0228468 24.977647,58.91551 C30.549096,62.6634193 41.0309292,63 45,63 C45,63 38.2150344,61.1281145 39.043712,57.2132942 C39.6900269,54.1550996 44.3389352,54.3192517 44.3389352,54.3192517 C44.3389352,54.3192517 29.2792615,52.7894646 21.0058944,47" id="Path" fill="#F7CCA7" fill-rule="nonzero"></path>
                <path d="M27.0254669,70.3203721 C27.0254669,70.3203721 27.0160844,70.5141514 27,70.8709726 L42.5991725,152.802201 C42.5991725,152.802201 44.9220257,160.215262 49.5690725,158.826733 C54.2174597,160.215262 56.5416533,152.802201 56.5416533,152.802201 L73,69 C49.1294327,77.1534315 27.0254669,70.3203721 27.0254669,70.3203721 Z" id="Path" fill="url(#linearGradient-2)" fill-rule="nonzero"></path>
                <path d="M50,158.962727 C54.2713707,159.558807 56.4077316,152.808128 56.4077316,152.808128 L73,69 C70.5839257,69.8166037 68.1921744,70.4795094 65.8342048,71.0181204 L64.30997,71.5313377 L50,158.962727" id="Path" fill="#FCE0AC" fill-rule="nonzero"></path>
            </g>
        </g>
    </g>
</svg>