<?xml version="1.0" encoding="UTF-8"?>
<svg width="75px" height="159px" viewBox="0 0 75 159" version="1.1" xmlns="http://www.w3.org/2000/svg" xmlns:xlink="http://www.w3.org/1999/xlink">
    <!-- Generator: Sketch 62 (91390) - https://sketch.com -->
    <title>Cone</title>
    <desc>Created with Sketch.</desc>
    <defs>
        <linearGradient x1="42.6996311%" y1="-2.02801394%" x2="100%" y2="-2.02801394%" id="linearGradient-1">
            <stop stop-color="#F4BD90" offset="0%"></stop>
            <stop stop-color="#EFA67F" offset="100%"></stop>
        </linearGradient>
        <linearGradient x1="42.6993794%" y1="-2.96979784%" x2="99.3997494%" y2="-2.96979784%" id="linearGradient-2">
            <stop stop-color="#FDE6CB" offset="0%"></stop>
            <stop stop-color="#FCE0AB" offset="100%"></stop>
        </linearGradient>
    </defs>
    <g id="Page-2" stroke="none" stroke-width="1" fill="none" fill-rule="evenodd">
        <g id="Artboard" transform="translate(-568.000000, -210.000000)" fill-rule="nonzero">
            <g id="Cone" transform="translate(568.000000, 210.000000)">
                <path d="M36.998643,29.7437949 L5,26 C5,26 8.76302956,47.0494057 10.6465799,51.7251034 L29.9421144,152.745528 C29.9421144,152.745528 32.2938383,160.226374 36.998643,158.825148 C41.7048047,160.226374 44.0578856,152.745528 44.0578856,152.745528 L63.3534201,51.7251034 C65.2356134,47.0494057 69,26 69,26 L36.998643,29.7437949 Z" id="Path" fill="url(#linearGradient-1)"></path>
                <polyline id="Path" fill="#EFA57E" points="58.6641003 32.5774694 49 85 57.0915718 83.4389038 69 27 58.6641003 32.5774694"></polyline>
                <path d="M71.8175342,25.6287324 C69.9853367,28.6186788 58.432239,35.7775395 34.2493915,34.9309332 C14.398787,34.2361142 7.47745207,31.5484337 3.59179034,27.3206364 C1.26174249,24.7860517 1,15.0559679 1,15.0559679 C39.8647124,35.3535821 73.9721875,14 73.9721875,14 C73.9721875,14 74.4093245,21.3996266 71.8175342,25.6287324" id="Path" fill="#EFA57E"></path>
                <path d="M75,11.0027228 C75,17.0758663 58.2111845,22 37.4986544,22 C16.7901611,22 0,17.0758663 0,11.0027228 C0,4.92413366 16.7901611,0 37.4986544,0 C58.2111845,0 75,4.92413366 75,11.0027228" id="Path" fill="#EFA57E"></path>
                <path d="M72.7585915,23.180867 C70.8767067,26.313397 59.0069769,33.814275 34.1604473,32.9277099 C13.7664114,32.2009952 6.65587293,29.3827928 2.66208014,24.9553405 C0.269032859,22.2996751 0,12.1068631 0,12.1068631 C39.9271666,33.3709925 74.9713868,11 74.9713868,11 C74.9713868,11 75.4206716,18.7520714 72.7585915,23.180867" id="Path" fill="#F4BD90"></path>
                <path d="M0.00779402045,12 C0.00779402045,12 -0.432398183,23.8412903 5.30348016,27.6389032 C12.7292149,32.5556129 26.7056518,33 32,33 C32,33 22.9539833,30.5423226 24.0564708,25.406129 C24.9181236,21.3917419 31.1169397,21.6058065 31.1169397,21.6058065 C31.1169397,21.6058065 11.0393585,19.593871 0.00779402045,12" id="Path" fill="#F7CCA7"></path>
                <path d="M63.3572849,56.8601366 C61.977238,59.1364404 53.2704462,64.5921108 35.0527408,63.9474466 C20.0949886,63.4186622 14.8804217,61.3714538 11.9505387,58.1507969 C10.1983138,56.2181363 10,48.8071622 10,48.8071622 C39.2811718,64.2697787 64.9791117,48 64.9791117,48 C64.9791117,48 65.3078236,53.6381476 63.3572849,56.8601366" id="Path" fill="#EFA57E"></path>
                <path d="M63.3251902,55.4172429 C61.9200201,57.8360457 53.0581882,63.6292451 34.5064538,62.9441025 C19.2790808,62.3837835 13.9697658,60.20908 10.98898,56.7847541 C9.20131376,54.7334872 9,46.8571217 9,46.8571217 C38.8118842,63.2880607 64.9786472,46 64.9786472,46 C64.9786472,46.0013869 65.3141701,51.9901431 63.3251902,55.4172429" id="Path" fill="#F4BD90"></path>
                <path d="M9.00589441,47 C9.00589441,47 8.67469155,56.0228468 12.977647,58.91551 C18.549096,62.6634193 29.0309292,63 33,63 C33,63 26.2150344,61.1281145 27.043712,57.2132942 C27.6900269,54.1550996 32.3389352,54.3192517 32.3389352,54.3192517 C32.3389352,54.3192517 17.2792615,52.7894646 9.00589441,47" id="Path" fill="#F7CCA7"></path>
                <path d="M15.0254669,70.3203721 C15.0254669,70.3203721 15.0160844,70.5141514 15,70.8709726 L30.5991725,152.802201 C30.5991725,152.802201 32.9220257,160.215262 37.5690725,158.826733 C42.2174597,160.215262 44.5416533,152.802201 44.5416533,152.802201 L61,69 C37.1294327,77.1534315 15.0254669,70.3203721 15.0254669,70.3203721 Z" id="Path" fill="url(#linearGradient-2)"></path>
                <path d="M38,158.962727 C42.2713707,159.558807 44.4077316,152.808128 44.4077316,152.808128 L61,69 C58.5839257,69.8166037 56.1921744,70.4795094 53.8342048,71.0181204 L52.30997,71.5313377 L38,158.962727" id="Path" fill="#FCE0AC"></path>
            </g>
        </g>
    </g>
</svg>