<?xml version="1.0" encoding="UTF-8"?>
<svg width="100px" height="80px" viewBox="0 0 100 80" version="1.1" xmlns="http://www.w3.org/2000/svg" xmlns:xlink="http://www.w3.org/1999/xlink">
    <!-- Generator: Sketch 62 (91390) - https://sketch.com -->
    <title>ube</title>
    <desc>Created with Sketch.</desc>
    <g id="Page-1" stroke="none" stroke-width="1" fill="none" fill-rule="evenodd">
        <g id="ube" fill-rule="nonzero">
            <path d="M97.9550109,53.0824585 C97.0831313,52.6619384 95.6527733,52.2205415 94.1986504,51.8328279 C95.122516,50.8680177 95.8532908,49.9971534 96.1310446,49.3991798 C97.233148,47.0594776 95.5829636,44.3380268 93.01634,44.9971398 C92.5544071,45.1179275 91.8488827,45.396783 91.0081947,45.7770405 C91.1121667,45.5831837 91.2131681,45.396783 91.2948604,45.2238031 C92.3360659,43.0093623 90.9146198,40.4623825 88.5901025,40.7457116 C88.5901025,40.6115031 88.6004997,40.487733 88.6004997,40.350542 C88.6004997,20.8023231 74.6637931,0 49.1134117,0 C24.8047534,0 9.62632376,20.8023231 9.62632376,40.350542 C9.62632376,41.4406136 9.69019229,42.4710369 9.79713494,43.4611977 C6.43141211,43.6684753 3.83062629,45.6144991 4.46485561,47.6932402 C6.32446946,53.7967462 0,52.1922086 0,56.3735501 C0,59.3022786 3.04489488,60.5041906 5.45853106,61.4883865 C5.45853106,61.4883865 4.70547657,66.7165546 7.65382601,66.6956777 C10.5977195,66.6718184 11.9790621,67.3234754 12.6429977,69.9002793 C13.3069333,72.4770832 15.7354226,72.1743684 17.4672994,72.1892805 C19.1976909,72.2041925 20.5849747,72.214631 20.5849747,72.214631 C20.5849747,72.214631 20.1973076,76.0679072 23.3149829,75.7681748 C26.4371141,75.472916 24.7141492,74.4976673 28.1719616,75.1642363 C31.6282886,75.835279 29.9736481,76.2557991 32.6457291,77.7723556 C34.368694,78.7505867 36.7823301,79.7347826 38.537972,77.4994649 C41.1357872,74.1889877 41.9883577,78.4911168 44.0737394,77.8648103 C45.6853057,77.3801684 46.0581197,77.4577111 47.1008105,77.2310478 C47.717216,77.6291998 48.4554174,78.1555955 49.2352075,78.8281294 C51.3012801,80.6131029 54.8482113,80.3595979 55.1437889,78.0631407 C55.1527008,77.9945453 55.1586421,77.9304234 55.1660686,77.8633191 C55.299747,77.9691948 55.427484,78.0691056 55.559677,78.1854196 C57.6272349,79.9718844 61.1741661,79.7183793 61.4682584,77.420431 C61.4727143,77.3712212 61.4786556,77.326485 61.4860822,77.2772752 C61.8529549,77.5486747 62.2317101,77.840951 62.6297744,78.1854196 C64.6973323,79.9718844 68.2442635,79.7183793 68.5398411,77.420431 C68.5799446,77.0789448 68.6170774,76.7464059 68.6497544,76.421323 C68.7225348,76.4064109 68.7819474,76.4004461 68.8591837,76.3825516 C70.9445654,77.6351646 73.851326,77.2444687 74.1201679,75.16871 C74.1617567,74.828715 74.1988896,74.4961761 74.2315665,74.169602 C74.4484225,73.9712716 74.7038966,73.7341698 75.1598881,73.4031221 C76.9036475,72.1311234 80.1490598,75.4087941 81.113029,71.7956021 C81.9269813,68.7386299 87.0795376,72.4219086 88.4950424,69.5394075 C89.9105472,66.6598888 88.5336606,66.0067406 89.9343122,64.4081678 C91.3364492,62.8140686 93.3936099,64.7600924 93.7783063,61.2274255 C93.9179259,59.9464795 94.0040742,59.2605248 93.961,58.7445675 C94.9012042,58.5507108 95.7909076,58.3300123 96.4845495,58.0839633 C99.1907927,57.1266091 100.292896,54.2038454 97.9550109,53.0824585" id="Path" fill="#9472C4"></path>
            <path d="M60.6172336,44.9784303 C59.1406323,45.9410176 71.321856,45.3012765 75.7516598,40.8111861 C75.7516598,40.8111861 75.0148328,40.4898277 71.6932168,41.1310567 C68.3686534,41.7737734 69.3589489,42.2900296 66.5236387,42.093644 C63.6883284,41.8972583 62.0923612,44.0188186 60.6172336,44.9784303 Z M57.3878895,33.5671286 C58.1905561,33.1556401 58.8574556,32.9322606 59.4229029,32.7882396 C61.604127,32.7088811 63.9002309,32.3605854 64.9311652,31.3421513 C67.1735591,29.1245221 69.4174449,31.6595853 70.9108822,29.7593901 C72.4043195,27.8591949 73.9022326,28.1751593 73.9022326,25.9589996 C73.9022326,23.74284 68.6684883,25.9589996 68.6684883,25.9589996 C68.6684883,25.9589996 66.8005727,24.3747688 63.8092223,26.274964 C60.8208557,28.1751593 62.314293,30.3942581 59.6989128,30.7072833 C57.4535351,30.9806293 55.2200928,32.1798244 54.6292825,32.5163632 C54.4368215,32.4884408 54.2473445,32.461988 54.0041574,32.4223087 C51.4559147,32.0137594 50.3220362,34.70607 50.3220362,34.70607 L53.9683507,33.868397 C53.9683507,33.868397 55.0127124,34.7898374 57.3878895,33.5671286 Z M30.8098043,51.2644548 C28.6405822,50.2672851 27.0004754,50.285443 25.1553552,48.5528795 C23.3147574,46.8172898 19.3441312,46.7552504 19.3441312,46.7552504 C19.3441312,46.7552504 22.3786303,48.1988011 24.5719716,50.6153109 C26.765313,53.0303077 27.5853664,52.6278082 31.5409181,54.0410958 C38.2792246,56.4500399 41.999614,55.2728046 41.999614,55.2728046 C41.999614,55.2728046 40.9685174,52.6429398 36.586357,51.4808361 C31.0600412,50.0115618 32.977519,52.2601113 30.8098043,51.2644548 Z M63.3239694,21.0546956 C65.6785123,19.8322853 66.9332844,20.2182324 67.5783849,19.6840698 C68.2264378,19.1572447 69.7410215,17.5591596 69.7410215,17.5591596 C69.7410215,17.5591596 66.1435161,18.0375579 64.0059749,19.0809358 C61.86991,20.1272486 62.4987722,20.318021 59.9759422,19.9129966 C57.4531122,19.5050373 56.3326745,22.1934597 56.3326745,22.1934597 L59.9405134,21.3569964 C59.9405134,21.3569964 60.9723789,22.2756386 63.3239694,21.0546956 Z M52.0041796,40.8319084 C55.4320184,40.4012282 59.1068153,39.9546503 59.1068153,39.9546503 C59.1068153,39.9546503 58.3467164,37.0873026 54.6719195,37.5338804 C50.0359081,38.0989676 52.3428229,39.1438731 50.3538483,39.0643851 C48.3663525,38.9834519 47.1729677,39.4777225 45.1263203,38.7796737 C43.0811516,38.0772891 40.1501868,39.1901206 40.1501868,39.1901206 C40.1501868,39.1901206 42.9495392,39.3360894 45.525594,40.418571 C48.1016488,41.4996073 48.5748621,41.2625887 52.0041796,40.8319084 Z M87.6009172,48.3112652 C87.903019,47.5363314 88.1767054,46.4926344 88.486285,44.9965194 C88.570036,44.690428 88.6493004,44.3843366 88.737538,44.0663002 C88.737538,44.0663002 88.7031403,44.1170665 88.6448137,44.1962024 C88.7495025,43.6616623 88.8556868,43.0927802 88.9693489,42.4537211 C89.8562122,37.5144512 87.4932373,29.418707 85.1003513,23.8941306 C82.5354766,17.9693957 75.8593246,14.7785795 75.8593246,14.7785795 C75.8593246,14.7800726 78.8549188,18.6413036 79.6041912,21.857503 C80.3549592,25.0766886 79.2317984,23.7911047 79.9810708,27.3283267 C80.7288477,30.8670419 78.1071419,31.5120735 74.3607798,32.7991505 C70.6144176,34.0877206 65.7433991,38.2699743 68.7404888,37.3054131 C71.7375785,36.3393588 72.8622349,37.6264358 77.3578695,35.6973134 C81.8520085,33.7637117 82.2273925,33.1216663 82.9781605,35.3762908 C83.7259374,37.6264358 85.9752502,40.2005898 80.7288477,45.3503909 C77.9710465,48.0559402 73.2391145,46.0894896 70.6144176,49.2116219 C65.7433991,55.0019752 54.1289286,55.9680295 54.1289286,55.9680295 C54.1289286,55.9680295 61.2462689,58.8617131 73.6115074,52.4278212 C77.1140942,50.604711 78.5707636,51.9574857 79.9556464,52.7607889 C77.3444095,54.6839388 74.1738356,56.5518429 70.4858,57.9090969 C60.2906101,61.6613295 46.1606182,63.0693499 33.3407314,60.1010099 C33.3646603,60.0801061 33.3930758,60.0681611 33.4170047,60.0472573 C33.4170047,60.0472573 32.9025342,60.1592419 31.7016045,58.7004551 C30.5021704,57.2446546 29.9189044,56.7444565 28.5803838,57.0386028 C27.7383871,57.2222577 26.3564954,57.4611583 25.4412165,57.6149505 C25.1301413,57.4910208 24.8235528,57.3551461 24.5169643,57.2222577 C24.3748867,56.9430426 24.2268268,56.6145543 24.0757759,56.1725882 C23.3474412,54.0732491 22.8898018,53.2968222 21.1998261,53.1863306 C19.8598099,53.098236 17.4983305,52.830966 16.5621139,52.7204745 C15.1144178,51.6678187 13.7444906,50.5031782 12.4598099,49.2355119 C10.6845876,46.7091381 10.4841834,44.5441014 10.4841834,44.5441014 C10.4841834,44.5441014 9.73491097,45.8311784 9.73491097,48.4068255 C9.73491097,50.9809794 11.2349514,51.1422374 8.42480588,53.2311245 C8.42480588,53.2311245 4.71284147,53.9642507 5.61466038,56.2890522 C6.17549304,57.7373871 7.86098212,58.7034414 8.98563854,58.7034414 C10.110295,58.7034414 12.9847493,59.417157 14.9813135,59.6680026 C17.4115884,59.9755871 18.7680556,59.6814407 19.3558083,59.0334229 C20.0482497,60.263761 21.3179748,61.6314669 23.660012,62.6094662 C26.3759376,63.7472304 24.6665197,68.0877557 24.6665197,68.0877557 C24.6665197,68.0877557 26.6810306,65.494191 29.7005536,65.494191 C29.9966732,65.494191 30.3077484,65.5046429 30.6128414,65.5106154 C30.741459,65.6599283 30.8775544,65.8167068 31.0181364,66.0033479 C32.3222593,67.732391 33.0670451,68.3595051 35.4943288,68.3595051 C36.3587589,68.3595051 37.531273,68.3804089 38.6828494,68.4072852 C38.8428737,68.8537307 39.3558486,69.3389976 40.5178939,69.8048537 C44.2627605,71.3054481 44.3091227,69.4435166 47.7623563,71.0904376 C49.3192277,71.8355089 51.4728251,70.620102 52.733577,69.2344786 C62.291661,69.1254802 71.7360829,66.7528986 78.4825259,62.0808987 C84.5604564,57.8747549 86.0335768,54.0642903 87.6009172,48.3112652 Z M83.6074986,60.2475224 C83.6074986,60.2475224 85.5991767,62.2054632 82.1148573,65.2521583 C79.8222674,67.261584 80.4553738,69.463321 80.4553738,69.463321 C80.4553738,69.463321 82.1878507,66.4438825 83.9382035,66.851219 C87.3391019,67.6446923 85.0182085,64.7403378 87.3391019,63.510757 C89.6614849,62.2826905 89.4127114,60.9789109 90.159032,60.7608572 C90.903863,60.5428035 92.3965043,58.8044307 92.3965043,58.8044307 C92.3965043,58.8044307 85.3489134,61.7314992 83.6074986,60.2475224 Z M16.1826915,34.6680785 C17.949555,36.6619381 18.6310809,36.3465675 21.8585715,37.5467694 C27.3618183,39.5899523 30.4406942,38.6707442 30.4406942,38.6707442 C30.4406942,38.6707442 29.6345721,36.5169573 26.051307,35.5170383 C21.531319,34.2555559 23.0700063,36.1104133 21.3016417,35.2734107 C19.5362794,34.4319243 18.1852369,34.4304296 16.6975889,32.9925789 C15.2099409,31.5577174 11.9464225,31.46206 11.9464225,31.46206 C11.9464225,31.46206 14.4173292,32.6712297 16.1826915,34.6680785 Z M27.2504659,30.1608176 C28.6192784,31.6559029 29.1450573,31.4191571 31.6503268,32.318791 C35.9161363,33.848312 38.3007596,33.1624668 38.3007596,33.1624668 C38.3007596,33.1624668 37.675187,31.5454215 34.9003255,30.7935744 C31.3941399,29.8480262 32.5901752,31.2412391 31.2198732,30.6099171 C29.8480818,29.9843344 28.7995029,29.9814648 27.6496409,28.9039129 C26.4953104,27.826361 23.9676991,27.7546199 23.9676991,27.7546199 C23.9676991,27.7546199 25.8786745,28.6628627 27.2504659,30.1608176 Z M32.1885312,23.7659578 C34.2229011,24.1671148 34.671681,24.9740398 35.352281,24.9740398 C36.0299089,24.9740398 37.8384028,24.7711558 37.8384028,24.7711558 C37.8384028,24.7711558 35.579643,23.3648008 33.768177,22.9636438 C31.9611692,22.5578758 32.1885312,22.9605698 31.0561792,21.5542149 C29.9267993,20.1447859 27.6665534,21.1515209 27.6665534,21.1515209 L30.1526753,22.3580658 C30.1526753,22.3580658 30.1526753,23.3632638 32.1885312,23.7659578" id="Shape" fill="#684B7C"></path>
        </g>
    </g>
</svg>